<svg xmlns="http://www.w3.org/2000/svg" width="197" height="53" fill="none"><path fill="#fff" d="M57.209 29.1c-2.253 0-4.757-.9-4.006-3.103.701-2.253 3.805-3.555 4.807-6.409l2.503-6.759c.951-2.653.2-4.355 1.202-6.809.75-1.902 2.503-2.653 4.606-2.653 4.806 0 6.308 7.06 7.51 10.464l1.702 4.856c1.201 3.404 3.204 4.706 4.205 7.46.751 2.203-1.301 2.954-4.506 2.954-3.204 0-5.507-.751-6.258-2.954-.6-1.702-.45-2.854-.5-4.256h-8.362c-.2 1.753 2.704 2.904 2.354 4.857-.25 1.502-2.153 2.353-5.257 2.353Zm5.857-16.17-2.303 6.458h7.31l-1.953-5.557c-1.201-3.805-2.353-2.604-3.054-.902Zm17.51 5.757c0-2.303-1.952-2.253-1.952-4.005 0-1.903 4.156-2.303 5.307-2.303 2.403 0 3.405 1.301 3.405 2.904v7.26c0 2.152.5 4.055 1.852 4.055 2.754 0 4.556-6.66 2.653-9.914-.55-.6-1.151-1-1.151-2.002 0-1.903 4.156-2.303 5.307-2.303 2.353 0 3.355 1.301 3.355 2.904v7.26c0 1.701 1.852 1.802 1.852 3.354 0 1.852-2.503 3.204-4.406 3.204-1.802 0-3.304-.951-3.905-2.604-1.352 1.653-3.004 2.604-5.457 2.604-4.406 0-6.86-2.453-6.86-6.308v-4.106Zm22.307 7.46c0-1.953 1.552-1.752 1.552-4.706 0-2.153-1.902-2.704-1.902-4.606 0-2.704 8.311-6.309 9.913-3.405 1.001-.65 2.253-1.051 3.855-1.051 3.004 0 5.006 1.201 5.958 3.204 1.101-2.003 2.954-3.204 5.757-3.204 4.356 0 6.559 2.503 6.559 6.308 0 3.404 1.502 4.706 1.502 7.46 0 2.203-1.702 2.954-4.856 2.954-3.205 0-4.907-.751-4.907-2.954 0-2.704 1.452-4.005 1.502-7.21 0-2.102-.15-4.055-1.502-4.055-2.203 0-3.154 4.806-2.303 8.912.2.7.351 1.452.351 2.353 0 2.203-1.703 2.954-4.857 2.954-3.204 0-4.906-.751-4.906-2.954 0-2.704 1.452-4.005 1.502-7.21 0-2.102-.151-4.055-1.502-4.055-2.253 0-3.856 5.708-2.404 9.362.101.15.151.35.251.551.15.4.25.801.25 1.352 0 2.203-1.702 2.954-4.906 2.954-3.205 0-4.907-.751-4.907-2.954Zm43.838 2.954c-5.508 0-9.963-3.705-9.963-8.361 0-4.606 4.455-8.361 9.963-8.361 5.107 0 9.212 3.254 9.212 6.208 0 3.805-6.409 2.954-7.61 5.457 2.003.751 4.105.55 4.806-.7.651-1.102 3.505-.602 2.504 1.15-1.603 2.754-5.007 4.607-8.912 4.607Zm1.902-13.218c0-1.852-4.456-1.702-4.456 2.404 0 2.002.902 3.554 2.153 4.556.251-2.354 2.303-5.358 2.303-6.96Zm10.039.701a2.115 2.115 0 0 1-2.103-2.102c0-1.152.951-2.103 2.103-2.103h.701c1.302 0 3.454-4.006 6.008-4.006 1.502 0 2.653.601 2.653 2.203 0 .701-.2 1.252-.45 1.803h1.502c1.151 0 2.103.95 2.103 2.103a2.116 2.116 0 0 1-2.103 2.102h-2.604v5.958c0 1.702.451 2.954 3.154 1.652 1.102-.5 3.155.1 1.953 2.053-1.302 2.253-4.256 2.854-6.358 2.854-2.654 0-5.858-1.602-5.858-5.207v-7.31h-.701Zm21.687 12.517c-3.004 0-6.759-.751-7.41-4.306-.851-4.656 8.211-7.66 12.517-5.607-.35-2.453-1.402-4.306-3.054-4.306-2.053 0-1.602 2.603-3.655 3.354-1.702.551-4.005-.25-4.356-1.852-.701-3.104 5.007-4.005 8.612-4.005 4.105 0 9.312 2.753 9.312 7.16v3.003c0 1.702 1.853 1.802 1.853 3.355 0 1.852-2.504 3.204-4.456 3.204-1.452 0-2.754-.651-3.505-1.803-1.302 1.002-3.154 1.803-5.858 1.803Zm5.257-7.16c-3.354-1.502-4.856.3-4.606 1.903.451 2.303 2.804 1.552 4.606-.05V21.94ZM15.262 43.141c.428-4.992 5.991-5.848 8.488-1.925 2.424 1.925 4.564.285 3.993-1.783l-4.656-8.423a1.98 1.98 0 0 1-.246-.748c-.513-4.898 4.471-6.574 7.304-4.3.162.13.29.297.391.478l8.333 14.776c2.354 4.136-3.78 10.056-8.201 3.566-1.213-1.997-5.064-2.069-6.918 0-1.64 4.422-8.488 3.423-8.488-1.64ZM15.262 4.524c.428 4.992 5.991 5.848 8.488 1.925 2.424-1.925 4.564-.285 3.993 1.783l-4.656 8.423a1.981 1.981 0 0 0-.246.748c-.513 4.898 4.471 6.574 7.304 4.3.162-.13.29-.297.391-.477l8.333-14.777c2.354-4.136-3.78-10.056-8.201-3.566-1.213 1.997-5.064 2.069-6.918 0-1.64-4.422-8.488-3.423-8.488 1.64Z"/><path fill="#fff" d="M24.128 43.141c-.428-4.992-5.991-5.848-8.487-1.925-2.425 1.925-4.565.285-3.994-1.783l4.656-8.423a1.98 1.98 0 0 0 .246-.748c.514-4.898-4.471-6.574-7.304-4.3a1.63 1.63 0 0 0-.39.478L.52 41.216c-2.354 4.136 3.78 10.056 8.202 3.566 1.212-1.997 5.063-2.069 6.918 0 1.64 4.422 8.487 3.423 8.487-1.64ZM24.128 4.524c-.428 4.992-5.991 5.848-8.487 1.925-2.425-1.925-4.565-.285-3.994 1.783l4.656 8.423c.128.232.219.485.246.748.514 4.898-4.471 6.574-7.304 4.3a1.63 1.63 0 0 1-.39-.477L.52 6.449C-1.833 2.313 4.3-3.607 8.723 2.883c1.212 1.997 5.063 2.069 6.918 0 1.64-4.422 8.487-3.423 8.487 1.64ZM53.088 47.457V35.04h7.008v1.225H54.43v4.099h5.07v1.208h-5.07v4.66h5.665v1.225h-7.008Zm9.587 0v-9.355h1.19v1.156h.256l-.187.375c0-.522.136-.936.408-1.242.283-.306.669-.46 1.156-.46.51 0 .908.182 1.191.545.295.363.448.873.46 1.53l-.358-.748h.562l-.239.375c0-.522.142-.936.426-1.242.283-.306.669-.46 1.156-.46.579 0 1.027.216 1.344.647.329.43.493 1.003.493 1.718v7.161h-1.258v-7.161c0-.408-.091-.726-.273-.953-.18-.238-.436-.357-.765-.357s-.59.12-.782.357c-.193.227-.29.545-.29.953v7.161h-1.122v-7.161c0-.42-.097-.743-.29-.97-.18-.226-.436-.34-.765-.34s-.584.114-.765.34c-.182.227-.278.55-.29.97v7.161h-1.258ZM73.35 50.52V38.102h1.344v1.65h.358l-.409.561c0-.737.238-1.316.715-1.735.487-.431 1.128-.646 1.922-.646.941 0 1.69.311 2.245.935.567.613.85 1.452.85 2.518v2.772c0 .715-.13 1.333-.39 1.854-.261.51-.624.908-1.09 1.191-.453.284-.992.425-1.615.425-.783 0-1.418-.215-1.905-.646-.488-.43-.732-1.01-.732-1.735l.358.561h-.324l.017 1.905v2.807H73.35Zm3.505-4.065c.68 0 1.207-.204 1.581-.613.386-.408.579-.986.579-1.735v-2.653c0-.76-.193-1.339-.579-1.735-.374-.409-.901-.613-1.581-.613-.658 0-1.186.21-1.582.63-.386.408-.579.98-.579 1.718v2.653c0 .737.193 1.316.579 1.735.397.409.924.613 1.582.613Zm11.373 1.003c-.533 0-.998-.102-1.395-.306a2.185 2.185 0 0 1-.902-.884c-.215-.386-.323-.84-.323-1.361v-8.641h-3.113V35.04h4.457v9.866c0 .42.113.748.34.986.227.227.539.34.936.34h2.977v1.225h-2.977Zm8.975.153c-.726 0-1.356-.141-1.889-.425a3.005 3.005 0 0 1-1.241-1.225c-.295-.533-.443-1.162-.443-1.888v-2.585c0-.737.148-1.367.443-1.888a3.005 3.005 0 0 1 1.241-1.225c.533-.284 1.163-.425 1.889-.425.725 0 1.355.141 1.888.425a3 3 0 0 1 1.241 1.225c.295.521.443 1.145.443 1.87v2.603c0 .726-.148 1.355-.443 1.888a2.999 2.999 0 0 1-1.241 1.225c-.533.284-1.163.425-1.888.425Zm0-1.207c.703 0 1.247-.199 1.632-.596.386-.397.579-.975.579-1.735v-2.585c0-.76-.199-1.338-.596-1.735-.385-.397-.924-.596-1.615-.596-.692 0-1.237.199-1.633.596-.386.397-.579.975-.579 1.735v2.585c0 .76.193 1.338.579 1.735.396.397.94.596 1.633.596Zm8.226 4.116 1.378-3.657-3.47-8.76h1.496l2.212 5.834c.091.227.176.482.255.766.091.272.159.499.204.68.057-.181.125-.414.204-.697.08-.284.159-.539.238-.766l2.076-5.817h1.445l-4.609 12.417h-1.429Zm12.172-2.892c-.725 0-1.355-.141-1.888-.425a3.108 3.108 0 0 1-1.241-1.242c-.295-.533-.443-1.15-.443-1.854v-2.653c0-.715.148-1.333.443-1.854a2.998 2.998 0 0 1 1.241-1.225c.533-.295 1.163-.442 1.888-.442.726 0 1.356.147 1.889.442.533.283.947.692 1.241 1.225.295.521.443 1.14.443 1.854v1.65h-5.818v1.003c0 .76.193 1.35.578 1.77.397.408.953.612 1.667.612.602 0 1.089-.12 1.463-.358.386-.238.63-.584.732-1.037h1.344c-.125.782-.505 1.4-1.14 1.854-.635.454-1.435.68-2.399.68Zm2.246-5.426v-.748c0-.76-.193-1.344-.579-1.752-.385-.42-.941-.63-1.667-.63-.714 0-1.27.21-1.667.63-.385.408-.578.992-.578 1.752v.595h4.627l-.136.153Zm4.807 5.256v-9.355h1.327v1.735h.323l-.476 1.071c.011-.952.244-1.684.697-2.194.454-.522 1.106-.782 1.956-.782.987 0 1.769.311 2.348.935.589.613.884 1.44.884 2.484v.56h-1.378v-.458c0-.76-.187-1.344-.561-1.752-.374-.42-.907-.63-1.599-.63-.669 0-1.196.21-1.582.63-.385.42-.578 1.003-.578 1.752v6.004h-1.361Zm13.006.153c-.612 0-1.151-.102-1.616-.306a2.704 2.704 0 0 1-1.105-.85 2.68 2.68 0 0 1-.494-1.293h1.344c.08.374.278.675.595.901.329.227.755.34 1.276.34h.834c.601 0 1.054-.13 1.361-.39.317-.273.476-.63.476-1.072 0-.42-.136-.76-.408-1.02-.273-.262-.664-.432-1.174-.511l-1.412-.221c-.884-.148-1.554-.431-2.007-.85-.442-.42-.664-1.01-.664-1.77 0-.828.267-1.468.8-1.922.544-.465 1.327-.697 2.347-.697h.664c.884 0 1.593.21 2.126.629.544.42.873.986.987 1.701h-1.361a1.246 1.246 0 0 0-.562-.817c-.294-.204-.691-.306-1.19-.306h-.664c-.601 0-1.049.125-1.343.375-.295.238-.443.584-.443 1.037 0 .408.125.72.374.936.25.204.63.346 1.14.425l1.395.221c.93.148 1.622.442 2.075.885.454.43.681 1.037.681 1.82 0 .85-.272 1.525-.817 2.024-.544.488-1.338.731-2.381.731h-.834Z"/></svg>
